<svg xmlns="http://www.w3.org/2000/svg" fill="none" viewBox="0 0 512 512"><path fill="#F37A1F" d="M0 0h512v512H0z"/><path fill="#fff" d="M366.806 304.042c-17.69 35.56-54.39 60.01-96.8 60.04-57.87.04-105.97-46.12-108.17-103.95-2.35-61.65 46.94-112.38 108.08-112.38 42.34 0 78.99 24.33 96.75 59.77l48.01-48.01c-31.31-46.94-84.85-77.78-145.57-77.51-96.25.44-174.4 80.08-173.09 176.33 1.28 94.95 78.65 171.51 173.9 171.51 60.49 0 113.77-30.89 144.93-77.76l-48.04-48.04Z"/><path fill="#fff" d="M320.115 257.376c-.92-.92-.92-2.41 0-3.32l36.3-36.3c-9.38-21.21-26.31-38.31-47.39-47.92l-84.21 84.21c-.92.91-.92 2.4 0 3.32l84.5 84.5c21.05-9.67 37.93-26.83 47.23-48.07l-36.43-36.43"/></svg>