<svg xmlns="http://www.w3.org/2000/svg" fill="none" viewBox="0 0 512 512"><path fill="#F37A1F" d="M512 0H0v512h512V0Z"/><path fill="#fff" d="m154.502 145.006-25.035 81.859c-11.126 36.45 9.14 63.364 45.048 63.364h117.226a7.613 7.613 0 0 1 6.007 3.271 7.625 7.625 0 0 1 .965 6.771l-6.322 20.592a15.536 15.536 0 0 1-13.077 10.042H95.076l-23.084 75.502H309.55c26.191 0 48.589-12.138 60.04-49.636l23.77-77.741c11.235-36.992-9.681-63.255-42.446-63.255H233.182c-6.502 0-9.103-4.769-7.225-10.549l6.286-20.591a15.53 15.53 0 0 1 15.353-12.174h169.462l23.084-75.501H215.12c-32.116 0-52.237 20.591-60.618 48.046Z"/></svg>