<svg xmlns="http://www.w3.org/2000/svg" fill="none" viewBox="0 0 512 512"><path fill="#F37A1F" d="M512 0H0v512h512V0Z"/><path fill="#fff" d="M305.948 264.021c-3.583-2.444-7.816-2.444-12.05-2.444H251.72c-8.305 0-15.96.978-18.076 7.816-1.464 4.887-13.68 45.924-17.912 58.624-.652 1.956-.978 3.746-.978 5.215 0 4.72 2.606 7.165 4.885 8.793 3.421 2.442 7.817 2.442 12.051 2.442h42.176c8.306 0 15.798-.979 17.915-7.818 1.464-5.048 13.842-45.921 18.075-58.624a15.41 15.41 0 0 0 .813-5.048c0-4.723-2.605-7.328-4.721-8.956Zm-21.821 20.028-11.725 38.108c-.814 2.116-2.607 2.116-3.744 2.116h-24.755c-2.605 0-3.093-.977-2.605-2.604l11.888-38.108c.651-2.278 2.443-2.116 3.582-2.116h24.916c2.443 0 2.931.976 2.443 2.604ZM391.603 310.92l-.488-49.343h-22.473l-28.01 48.04-.325-48.04h-21.332l.163 82.89h25.728l25.405-45.435-.488 45.435h26.705l51.623-82.89h-27.357l-29.151 49.343ZM59.566 261.577l-6.224 20.178h24.59l6.223-20.178H59.566ZM34 344.464h24.59l15.801-51.229h-24.59L34 344.464ZM180.721 261.577l-30.453 48.692-2.442-48.692h-38.759l-26.217 82.89h23.775l19.541-62.208 3.421 62.208h21.821l40.06-62.208-19.378 62.208h23.776l25.567-82.89h-40.712ZM465.66 256.548c-6.967 0-12.34 5.406-12.34 12.34 0 6.935 5.373 12.341 12.34 12.341 6.968 0 12.34-5.406 12.34-12.341 0-6.932-5.372-12.34-12.34-12.34Zm0 22.924c-5.972 0-10.418-4.678-10.418-10.584 0-5.904 4.446-10.584 10.418-10.584 5.971 0 10.415 4.679 10.415 10.584 0 5.908-4.444 10.584-10.415 10.584Z"/><path fill="#fff" d="M471.3 265.697c0-2.553-1.427-3.947-4.645-3.947h-5.473v14.266h1.758v-6.338h2.954l4.012 6.338h2.058l-4.246-6.338c1.921-.33 3.582-1.459 3.582-3.981Zm-6.037 2.488h-2.325v-4.944h3.22c1.726 0 3.38.466 3.38 2.456 0 2.423-2.12 2.488-4.275 2.488ZM124.046 208.746l25.839-41.246h34.617l-21.648 70.304H142.67l16.382-52.752-33.934 52.752h-18.526l-2.926-52.752-16.575 52.752H66.906L88.4 167.5h33.598l2.049 41.246ZM233.417 167.5h24.182l-38.844 46.515-7.276 23.787h-20.868l7.411-24.084-10.627-46.218h19.403l5.168 26.619 21.451-26.619Z"/></svg>